<?xml version="1.0" encoding="UTF-8" standalone="no"?>
<!-- Created with Inkscape (http://www.inkscape.org/) -->

<svg
   width="866.18536mm"
   height="137.15965mm"
   viewBox="0 0 866.18537 137.15965"
   version="1.1"
   id="svg1"
   xml:space="preserve"
   inkscape:version="1.4.2 (f4327f4, 2025-05-13)"
   sodipodi:docname="Logo Horizontal.svg"
   xmlns:inkscape="http://www.inkscape.org/namespaces/inkscape"
   xmlns:sodipodi="http://sodipodi.sourceforge.net/DTD/sodipodi-0.dtd"
   xmlns="http://www.w3.org/2000/svg"
   xmlns:svg="http://www.w3.org/2000/svg"><sodipodi:namedview
     id="namedview1"
     pagecolor="#505050"
     bordercolor="#eeeeee"
     borderopacity="1"
     inkscape:showpageshadow="0"
     inkscape:pageopacity="0"
     inkscape:pagecheckerboard="0"
     inkscape:deskcolor="#505050"
     inkscape:document-units="mm"
     inkscape:zoom="0.25944852"
     inkscape:cx="1772.9914"
     inkscape:cy="437.46636"
     inkscape:window-width="1920"
     inkscape:window-height="1121"
     inkscape:window-x="-7"
     inkscape:window-y="-7"
     inkscape:window-maximized="1"
     inkscape:current-layer="layer1" /><defs
     id="defs1"><inkscape:path-effect
       effect="mirror_symmetry"
       start_point="-152.38546,-19.678166"
       end_point="-152.38546,62.13521"
       center_point="-152.38546,21.228522"
       id="path-effect65"
       is_visible="true"
       lpeversion="1.2"
       lpesatellites=""
       mode="free"
       discard_orig_path="false"
       fuse_paths="false"
       oposite_fuse="false"
       split_items="false"
       split_open="false"
       link_styles="false" /></defs><g
     inkscape:label="Logo"
     inkscape:groupmode="layer"
     id="layer1"
     transform="translate(129.06476,24.761149)"
     style="display:inline;fill:currentColor;stroke:#ff4500;stroke-width:0;stroke-dasharray:none;paint-order:stroke fill markers"><path
       style="display:inline"
       d="m 241.8757,53.897684 c -10.40296,-0.06312 -19.80316,-8.266892 -19.93802,-11.014884 5.11917,1.448679 13.16484,4.507793 22.91938,0.33073 -5.95395,-0.767232 -15.07396,-3.433717 -16.33304,-9.202293 7.41524,2.43859 11.32277,0.521864 16.95965,-1.842507 -6.06562,-2.274297 -9.32178,-3.128313 -10.79468,-6.083703 2.85875,0.341102 13.87541,0.361173 14.34462,-2.935446 -2.42114,-0.149015 -9.00267,-3.008729 -9.42785,-5.815533 5.33404,0.571123 13.00242,0.904041 13.54181,-3.067004 -5.6318,-0.725178 -9.24542,-3.614756 -9.34999,-5.2195291 2.51448,0.07823 10.32514,-0.375805 11.40221,-2.2081664 -1.45252,-0.7491012 -7.32741,-2.3294867 -7.60921,-5.1787743 12.78744,0.4433685 11.35258,-3.6116804 10.75931,-4.7052981 -0.52727,-0.9719618 -6.48559,-0.8201359 -8.01856,-1.1496598 5.38356,-0.8930888 13.50604,-3.7983581 18.31981,-6.9599513 -1.8255,4.5928941 1.50334,11.93687232 2.94105,15.7430878 -2.08451,-1.2617166 -4.46243,-4.82321698 -6.01574,-5.09979868 -0.65972,-0.1174681 -3.4539,2.77531728 6.21952,10.58657288 -2.51087,1.075983 -5.78311,0.0058 -7.34184,-0.07677 -0.75964,1.859877 1.07271,4.824036 7.75755,9.929094 -5.39682,1.3279 -9.57797,-1.191472 -11.10954,-1.132424 0.39498,6.066057 8.43862,8.345791 11.09891,11.031214 -2.22695,1.609018 -11.2123,-0.18154 -13.53416,-1.060866 2.87349,7.361291 10.14123,8.749034 13.8245,11.713798 -1.06444,1.348482 -10.18646,1.178944 -15.07816,-0.859861 4.08916,6.912375 10.46624,7.017567 16.06713,10.021298 -1.71112,1.243406 -8.96866,3.683675 -17.31425,-0.355705 5.389,6.153977 10.61851,7.431855 19.22789,10.520999 -9.19685,2.955652 -13.6091,3.814864 -22.37123,-1.059433 -2.26891,-0.683694 -3.95166,4.194737 -7.21656,7.085793 -3.2649,2.891055 -6.9504,4.739795 -10.92695,4.826377 -1.51974,-0.03207 -5.24242,-2.151872 -5.19774,-3.4666 0.13908,-1.329026 5.52131,-3.519239 9.23104,-6.104611 3.70973,-2.585372 4.52603,-6.198973 2.96314,-7.190148 z m -788.52232,0 c 10.40296,-0.06312 19.80316,-8.266892 19.93802,-11.014884 -5.11917,1.448679 -13.16484,4.507793 -22.91938,0.33073 5.95395,-0.767232 15.07396,-3.433717 16.33304,-9.202293 -7.41524,2.43859 -11.32277,0.521864 -16.95965,-1.842507 6.06562,-2.274297 9.32178,-3.128313 10.79468,-6.083703 -2.85875,0.341102 -13.87541,0.361173 -14.34462,-2.935446 2.42114,-0.149015 9.00267,-3.008729 9.42785,-5.815533 -5.33404,0.571123 -13.00242,0.904041 -13.54181,-3.067004 5.6318,-0.725178 9.24542,-3.614756 9.34999,-5.2195291 -2.51448,0.07823 -10.32514,-0.375805 -11.40221,-2.2081664 1.45252,-0.7491012 7.32741,-2.3294867 7.60921,-5.1787743 -12.78744,0.4433685 -11.35258,-3.6116804 -10.75931,-4.7052981 0.52727,-0.9719618 6.48559,-0.8201359 8.01856,-1.1496598 -5.38356,-0.8930888 -13.50604,-3.7983581 -18.31981,-6.9599513 1.8255,4.5928941 -1.50334,11.93687232 -2.94105,15.7430878 2.08451,-1.2617166 4.46243,-4.82321698 6.01574,-5.09979868 0.65972,-0.1174681 3.4539,2.77531728 -6.21952,10.58657288 2.51087,1.075983 5.78311,0.0058 7.34184,-0.07677 0.75964,1.859877 -1.07271,4.824036 -7.75755,9.929094 5.39682,1.3279 9.57797,-1.191472 11.10954,-1.132424 -0.39498,6.066057 -8.43862,8.345791 -11.09891,11.031214 2.22695,1.609018 11.2123,-0.18154 13.53416,-1.060866 -2.87349,7.361291 -10.14123,8.749034 -13.8245,11.713798 1.06444,1.348482 10.18646,1.178944 15.07816,-0.859861 -4.08916,6.912375 -10.46624,7.017567 -16.06713,10.021298 1.71112,1.243406 8.96866,3.683675 17.31425,-0.355705 -5.389,6.153977 -10.61851,7.431855 -19.22789,10.520999 9.19685,2.955652 13.6091,3.814864 22.37123,-1.059433 2.26891,-0.683694 3.95166,4.194737 7.21656,7.085793 3.2649,2.891055 6.9504,4.739795 10.92695,4.826377 1.51974,-0.03207 5.24242,-2.151872 5.19774,-3.4666 -0.13908,-1.329026 -5.52131,-3.519239 -9.23104,-6.104611 -3.70973,-2.585372 -4.52603,-6.198973 -2.96314,-7.190148 z"
       id="path51"
       sodipodi:nodetypes="ccccccccccccscccsccccccccccccsccscc"
       inkscape:path-effect="#path-effect65"
       inkscape:original-d="m 241.8757,53.897684 c -10.40296,-0.06312 -19.80316,-8.266892 -19.93802,-11.014884 5.11917,1.448679 13.16484,4.507793 22.91938,0.33073 -5.95395,-0.767232 -15.07396,-3.433717 -16.33304,-9.202293 7.41524,2.43859 11.32277,0.521864 16.95965,-1.842507 -6.06562,-2.274297 -9.32178,-3.128313 -10.79468,-6.083703 2.85875,0.341102 13.87541,0.361173 14.34462,-2.935446 -2.42114,-0.149015 -9.00267,-3.008729 -9.42785,-5.815533 5.33404,0.571123 13.00242,0.904041 13.54181,-3.067004 -5.6318,-0.725178 -9.24542,-3.614756 -9.34999,-5.2195291 2.51448,0.07823 10.32514,-0.375805 11.40221,-2.2081664 -1.45252,-0.7491012 -7.32741,-2.3294867 -7.60921,-5.1787743 12.78744,0.4433685 11.35258,-3.6116804 10.75931,-4.7052981 -0.52727,-0.9719618 -6.48559,-0.8201359 -8.01856,-1.1496598 5.38356,-0.8930888 13.50604,-3.7983581 18.31981,-6.9599513 -1.8255,4.5928941 1.50334,11.93687232 2.94105,15.7430878 -2.08451,-1.2617166 -4.46243,-4.82321698 -6.01574,-5.09979868 -0.65972,-0.1174681 -3.4539,2.77531728 6.21952,10.58657288 -2.51087,1.075983 -5.78311,0.0058 -7.34184,-0.07677 -0.75964,1.859877 1.07271,4.824036 7.75755,9.929094 -5.39682,1.3279 -9.57797,-1.191472 -11.10954,-1.132424 0.39498,6.066057 8.43862,8.345791 11.09891,11.031214 -2.22695,1.609018 -11.2123,-0.18154 -13.53416,-1.060866 2.87349,7.361291 10.14123,8.749034 13.8245,11.713798 -1.06444,1.348482 -10.18646,1.178944 -15.07816,-0.859861 4.08916,6.912375 10.46624,7.017567 16.06713,10.021298 -1.71112,1.243406 -8.96866,3.683675 -17.31425,-0.355705 5.389,6.153977 10.61851,7.431855 19.22789,10.520999 -9.19685,2.955652 -13.6091,3.814864 -22.37123,-1.059433 -2.26891,-0.683694 -3.95166,4.194737 -7.21656,7.085793 -3.2649,2.891055 -6.9504,4.739795 -10.92695,4.826377 -1.51974,-0.03207 -5.24242,-2.151872 -5.19774,-3.4666 0.13908,-1.329026 5.52131,-3.519239 9.23104,-6.104611 3.70973,-2.585372 4.52603,-6.198973 2.96314,-7.190148 z"
       transform="matrix(1.0124205,0,0,1.0997188,458.3061,-4.1303086)"
       inkscape:label="Trees"
       inkscape:transform-center-x="-1.60722"
       inkscape:transform-center-y="1.7458041" /><path
       id="path5"
       style="display:inline"
       d="m 340.68016,36.052323 c -3.1384,5.2904 -11.10001,20.125 -7.87755,29.59251 0.88791,2.57947 3.04486,4.10117 5.36194,5.25601 -3.20479,0.16889 -6.40792,0.36187 -9.60716,0.61495 3.18454,-1.06151 3.34137,-2.13282 1.59732,-5.2648 -7.53176,-14.1037 7.26622,-31.96745 7.26622,-38.84982 -0.49483,-3.72634 -3.42577,-6.194 -7.1205,-5.50923 -11.3866,2.39521 -23.57117,16.35143 -23.57117,15.63522 0,-0.70656 4.23334,-7.38934 4.23334,-9.65987 0,-4.86988 -9.3597,-9.63162 -12.30468,-6.69107 -2.25124,2.24783 -17.27806,32.98477 -12.42715,41.84551 3.13404,5.7246 14.65604,7.19568 15.97267,6.51488 1.14655,-0.59291 1.88219,-2.3304 1.87999,-4.45451 -0.008,-7.72648 3.82919,-18.42846 10.6872,-22.66373 0.0526,0.0526 -7.44422,23.13996 -2.39572,27.40659 2.01787,1.64938 4.58403,2.11709 7.05435,2.6448 0.41916,0.0918 -1.36627,0.59952 -4.89479,1.2821 -16.27897,3.14913 -32.13318,9.82022 -48.93345,9.31571 -12.4787,-0.37474 -11.38262,-4.73752 -14.15469,-2.40503 -2.16432,1.82115 -3.8819,15.71351 9.11314,19.30839 21.72526,6.009997 46.15246,-18.77912 77.04491,-19.46858 -1.18212,2.38978 -3.0405,7.64552 -1.51205,15.08125 5.20626,25.327927 49.39178,9.295777 45.80599,-15.97319 -0.59975,-4.2264 -2.12515,-8.08227 -13.5475,-9.46299 12.60181,-12.23395 10.76651,-30.37806 10.25106,-31.37482 -2.42742,-4.69412 -8.55326,-3.0902 -11.60084,-1.15652 -2.01642,1.27941 -2.62574,2.46221 -2.91094,5.6503 -0.24136,2.69806 -0.24644,2.71222 -1.35134,3.85403 -1.83449,1.89575 -7.54204,6.08022 -9.86038,7.22901 -13.10588,6.49421 -7.35671,-15.53109 -0.31574,-21.8922 2.7648,-2.49783 6.81871,-3.17884 6.81871,-0.0786 0,1.12802 -0.76987,2.9034 -1.67949,3.87315 -4.12198,4.39443 5.80736,7.61251 10.0707,-1.21905 6.42805,-13.31577 -13.44652,-21.983271 -27.0924,1.0196 z m 20.37137,24.27706 c -1.04377,3.53441 -3.43365,6.21641 -6.15156,8.58449 -1.10201,0.94105 -1.14168,1.0262 -1.01131,2.18281 0.11252,0.99829 0.061,1.20354 -0.30231,1.20354 -3.19445,0.6212 -5.60327,3.10778 -7.56888,5.46311 -0.1529,-0.31174 1.07009,-2.30598 -0.67737,-4.0969 -0.77254,-0.79175 -1.91199,-1.34179 -3.0249,-1.81372 12.51641,-0.45505 18.86162,-12.79183 18.73633,-11.52333 z m 13.45912,20.32279 c -0.56375,3.44211 -11.51918,15.2002 -24.8884,11.74482 -6.46828,-1.67178 -5.95094,-6.98918 -4.3558,-12.29176 -0.0123,4.05407 2.5478,8.47247 6.94531,8.86354 0.89843,0 1.82972,-1.02296 2.25102,-2.4722 2.12306,-7.30298 20.35098,-7.69513 20.04787,-5.8444 z M 255.2306,66.082563 c 0.54074,-14.379 7.71752,-30.94351 22.04216,-54.304092 2.59297,-4.2286047 14.43165,-19.9700652 8.35035,-25.367992 -1.69305,-1.502803 -7.16173,1.55683 -12.7906,6.9837309 -12.34786,11.9048103 -14.77897,23.8941231 -12.96,25.8302231 0.7894,0.84023 0.84942,2.54581 0.1242,3.52681 -2.29512,3.10456 -11.15975,4.74459 -15.2541,-2.7781 -9.96552,-18.3099289 38.55033,-64.206672 52.99153,-33.34652 4.5914,11.4533263 -2.13183,23.691757 -7.19978,33.81532 -7.41031,14.73031 -12.16755,26.91616 -15.13211,38.76145 -1.79605,7.17635 -2.27899,11.78676 -1.74062,16.617 0.39777,3.56871 0.59103,6.04307 -6.34819,6.21097 -10.40871,-0.15664 -12.42219,-6.92511 -12.08284,-15.9488 z m 240.83121,0.8736 c -0.57472,-1.15331 -0.79685,-1.94737 -1.38148,-4.93829 -0.21501,-1.10007 -3.30476,5.82886 -9.52673,8.15681 -7.74767,2.89878 -16.32427,-0.67634 -17.6123,-10.04524 -0.17006,-1.23693 -0.34322,-2.29534 -0.3848,-2.35202 -0.0416,-0.0567 -1.13936,0.90924 -2.4395,2.1465 -17.14877,16.31928 -32.86472,11.74243 -36.35338,4.53957 -8.024,-16.56678 13.1042,-44.13947 28.91331,-44.10496 9.15615,0.02 12.1638,7.7602 6.71596,17.45133 -5.23813,9.31809 -11.94323,12.61859 -21.9295,14.83239 -0.71911,8.62286 10.94039,6.25548 22.75419,-2.59092 3.69816,-2.76925 4.39658,-3.62404 5.81733,-7.11981 3.52323,-8.66893 10.16443,-17.31663 16.17635,-21.0637 7.26479,-4.52795 15.83618,-3.34648 17.89336,2.88688 3.25832,-8.7001 10.03182,-25.19934276 17.04372,-32.6323205 7.60976,-8.0667575 19.97071,-2.2347165 20.65346,5.2949478 0.12821,1.413869 0.0743,1.68796897 -0.43914,2.23454194 -0.3219,0.342647 -0.95548,0.69703497 -1.40796,0.78753097 -8.30147,1.66029499 -29.13376,37.87814979 -31.2122,58.66648979 -0.97723,9.77378 3.23237,11.16495 3.23237,13.9095 0,3.96426 -12.41707,2.16033 -16.51306,-6.05923 z m -0.7516,-17.05944 c 0.87736,-0.7632 1.11431,-1.391 2.76377,-7.32296 0.52805,-1.89903 0.55315,-2.29859 0.29218,-4.65016 -0.45032,-4.05757 -2.59621,-8.52953 -6.94265,-6.90406 -5.46542,2.04393 -9.55568,11.10811 -9.98189,17.46823 -0.24705,3.68656 0.66528,5.68442 2.95511,6.47124 3.70386,0.92622 8.26285,-2.90342 10.91348,-5.06229 z m -43.70607,-19.6652 c -2.7968,0 -10.10002,14.55208 -8.96919,14.55208 2.35081,0 13.40276,-14.55208 8.96919,-14.55208 z m 72.74467,42.14877 c -8.63719,-1.37637 -8.68237,-4.58624 -8.10315,-12.54754 0.97872,-13.45245 10.6346,-32.01145 12.95025,-35.98774 2.1831,-3.67931 3.09915,-4.152 6.36292,-3.28331 3.2338,0.8607 6.22286,3.04461 7.44448,5.43919 0.8554,1.67673 0.59945,2.81067 -1.56641,6.93955 -3.64231,6.94352 -6.25246,13.58931 -7.30126,18.59004 -2.61544,12.47047 3.61916,16.67286 2.39401,18.5427 -1.05204,1.60561 -7.83044,3.00036 -12.18084,2.30711 z m 83.95553,-2.1713 c -1.89852,-1.20401 -2.1791,-2.36177 -1.989,-8.20752 0.42944,-13.20653 4.7043,-19.13834 4.05421,-19.78843 -7.76922,5.69008 -10.31453,14.09562 -10.90271,23.29394 -0.39434,6.16685 -5.20266,4.37435 -9.63366,3.03336 -4.96649,-1.50305 -8.31705,-3.79541 -9.11684,-9.12286 -0.21388,-1.42465 -0.3659,-2.45227 -0.38089,-2.27744 -0.0353,0.41203 -4.94363,4.84263 -7.46459,6.7381 -15.92724,11.9755 -33.34617,8.8909 -33.42243,-7.45285 -0.0672,-14.40105 12.62206,-29.15132 22.48054,-34.07736 12.08037,-6.03628 24.44547,1.65913 13.06181,18.21894 -5.24077,7.62375 -11.27183,10.14369 -20.21489,12.0738 -0.003,14.43201 26.98657,-3.83806 28.52734,-8.17086 1.75807,-4.9439 2.86556,-7.73286 4.34068,-10.93098 2.86735,-6.21657 5.9243,-12.0244 6.61499,-12.5677 0.91942,-0.72322 2.15544,-0.89314 3.88496,-0.5341 4.57374,0.94951 8.63301,4.79093 8.28888,7.84405 -0.27279,2.42025 -4.13773,8.14354 -4.15845,8.90617 -0.0217,0.8295 7.49826,-8.02796 17.63125,-13.09806 4.72335,-2.36337 7.87086,-2.99327 9.6482,-1.85649 5.43328,3.47512 2.33671,9.46809 0.25914,14.04782 -4.36707,9.62664 -5.61433,13.54727 -6.07111,19.40598 -0.75085,9.63033 2.68453,10.34873 3.0503,13.10702 0.18021,1.35891 -0.49911,2.02408 -3.35679,2.83432 -3.68315,1.04429 -9.99962,1.83533 -15.13094,-1.41885 z m -43.76775,-39.89286 c -1.75044,-0.67168 -9.09924,11.11032 -9.09924,14.211 0,2.14962 13.20693,-12.63473 9.09924,-14.211 z m 67.7959,37.47675 c -3.6481,-3.94037 -4.25077,-9.40685 -2.01169,-18.24676 0.97381,-3.84461 10.11771,-31.66644 18.23232,-45.1114628 -10.19981,-0.8884311 -32.36997,9.0774718 -41.90757,-1.224262 -5.0318,-5.4349419 -1.99841,-13.4270002 -0.11746,-14.3996752 2.82498,-1.460857 4.33192,2.2033834 13.76258,4.6363299 10.55568,2.7231814 21.56738,2.1586424 32.38106,2.1394974 0.64572,-0.8192773 4.19921,-5.2740896 6.08542,-6.1306183 4.95316,-2.249237 11.12518,-1.940241 14.57134,2.5946548 0.77598,1.1514691 1.35115,3.9111435 0.92275,4.4273355 -0.855,1.030202 14.20549,0.82438 18.02844,8.1700689 3.63941,6.9930198 -7.15892,13.2820918 -8.47698,8.0476108 -1.47595,-5.8615767 -15.12695,-7.9594328 -16.28152,-7.5163778 -0.57177,0.219416 -14.04321,19.0553688 -21.499,43.5337488 -1.0774,3.53727 -3.62055,12.94594 -1.73016,17.47197 3.52888,8.44834 -7.5284,6.39412 -11.95953,1.60794 z m -235.90973,1.94934 c -13.91582,-2.28286 -16.07616,-7.1581 -14.29937,-16.51279 1.74088,-9.16577 3.80969,-14.79603 9.82105,-26.72801 2.88348,-5.72346 3.38671,-6.40652 5.27207,-6.31994 3.55967,0.16347 7.01284,1.89335 9.01808,4.85467 2.80098,4.13644 -0.81599,6.43218 -0.81599,7.78749 0,0.63377 7.42089,-9.56229 17.66169,-11.04639 8.613,-1.2482 5.8655,9.5081 3.58048,14.14281 -1.93983,3.93458 -2.98592,6.4026 -2.98592,7.28108 0,0.83399 2.29998,2.66487 1.72075,4.48984 -0.57892,1.82408 -11.44014,4.19891 -15.5775,1.25541 -2.07364,-1.79606 -2.43903,-3.03433 -2.73819,-5.4857 -0.0465,0 -0.68837,0.92273 -1.42644,2.05052 -2.69339,4.11559 -6.77825,11.95489 -5.42213,20.07905 0.41921,2.51175 -1.26667,4.54372 -3.80858,4.15196 z m 141.92428,-49.3084 c -3.96408,-0.78592 -6.55683,-3.64836 -6.55683,-7.238871 0,-2.343581 1.4479,-5.2776807 3.69345,-7.4846038 4.31738,-4.2431311 16.26141,-8.5654659 22.80426,-2.3582331 2.18055,2.0686921 2.07958,4.1975512 -0.30609,6.4538152 -4.23781,4.0079517 -13.13613,7.3054227 -15.22698,9.2765627 -1.31195,1.60617 -2.49263,1.83008 -4.40781,1.35133 z"
       inkscape:label="Ingredient" /><path
       id="path22"
       style="display:inline"
       d="m -43.007855,44.9178 c 0.430899,0.430897 -3.496131,26.598692 -21.131009,31.29318 -2.006068,0.534027 -2.042843,0.521991 -1.882056,-0.614949 2.387541,-16.882495 22.864583,-30.82671 23.013065,-30.678231 z M 110.43032,96.12346 c 22.39948,-12.076795 10.78515,-28.006798 6.45594,-28.495935 -1.70395,-0.192522 -2.19319,1.15407 -2.89281,2.423265 C 110.26506,76.814509 81.840161,101.0711 39.613307,84.901923 29.441411,81.006978 19.632216,76.718778 9.6558032,74.107942 -23.29035,65.485908 -39.212425,88.234799 -36.429608,102.81667 -32.695796,122.38173 5.946215,109.59914 -3.4598518,85.931332 -14.904371,57.134319 13.726574,28.551674 17.494912,25.748944 c 3.049935,-2.268411 5.195167,-2.700081 5.590357,-1.125513 0.796159,3.172137 -3.730656,15.12699 -9.052161,23.905001 C 12.14133,51.648989 9.620836,54.748226 9.1910265,54.482591 8.657127,54.152622 9.0278233,53.290748 10.807982,50.721063 14.993188,44.679649 15.221315,43.021816 12.055968,41.660117 6.0412304,39.072642 -1.9236679,47.855768 0.61532253,56.405471 3.7363476,66.915096 25.817674,68.864392 33.539928,38.547131 c 1.697978,-6.666083 1.703347,-13.634636 0.01292,-17.126603 -2.462277,-5.086353 -10.371422,-5.034452 -13.100492,-4.241085 -3.870606,1.12522 -7.785054,4.11086 -7.933366,4.11086 -0.07238,0 -0.131775,-0.266569 -0.131775,-0.592728 0,-3.044947 -9.0483131,-8.878116 -12.11967386,-5.938139 -1.94420254,1.861014 -2.38652284,5.071092 -4.41678464,5.31182 -12.9697485,1.537663 -18.6141065,2.749377 -21.8792845,4.00234 -0.583486,-0.316292 -0.640971,-0.413599 -1.26969,-2.307353 -2.438387,-7.344617 -7.525994,-14.5436755 -5.959843,-22.52472298 1.65424,-8.42994852 7.835478,-8.81963312 8.460982,-4.46949462 0.42055,2.9247613 -1.129384,5.47546791 -2.605526,7.8599853 -2.0509,3.3129633 0.853729,9.4406713 9.594247,6.2507813 8.1100613,-2.959807 17.20237202,-12.1008871 20.0339191,-20.140889 2.7212578,-7.726846 -2.62082851,-13.502435 -6.1272745,-13.503052 -1.3365247,-2.35e-4 -2.8100442,0.758322 -4.1036265,3.185333 -0.4889132,0.917291 -6.7656871,10.124951 -7.0450481,9.345166 -0.497909,-1.389779 -3.077072,-3.581764 -5.815666,-4.942851 -10.926942,-5.430711 -30.724562,2.36235 -31.753617,19.4401554 -0.630294,10.4600196 3.302515,9.6401436 8.808765,29.3780516 0.224199,0.791484 -28.135655,16.288561 -32.819186,38.956795 -5.487856,26.561156 31.230138,26.488561 46.874871,1.894834 11.119067,-17.479321 5.575264,-36.970341 6.014741,-37.655044 0.449406,-0.700495 15.6583032,-5.533273 15.8850427,-5.306534 0.5150474,0.515048 -9.6407527,21.118938 -11.7987627,35.494991 -1.650558,10.995553 4.133944,17.743819 5.869957,23.588026 0.933507,3.142608 -1.982162,10.640256 -8.534605,8.803467 -6.909942,-1.937003 6.074064,-31.868333 53.576143,-3.519784 23.399189,12.428693 54.917916,15.299273 79.173025,2.222003 z m 58.69972,-41.022384 c -2.65815,4.306517 -5.92026,7.515577 -9.92445,8.92834 -4.59542,1.621358 -17.04008,1.870632 -16.2862,-12.047406 0.66586,-12.293345 15.27545,-39.268687 28.74674,-37.06153 5.94193,0.97352 8.03878,4.20404 8.05861,8.25492 l 0.0112,2.28466 c 3.3133,0.345835 6.78387,1.709957 8.58523,5.48757 1.02119,2.14156 0.87457,3.419497 -0.69358,7.27604 -3.05997,7.525375 -6.06155,16.340661 -1.65029,23.922288 1.29987,2.234093 1.55075,3.548886 0.52063,4.504327 -0.65972,0.61189 -14.76918,3.874158 -17.36789,-11.549209 z m 0.0715,-11.029276 c 1.16257,-0.86523 1.68777,-1.44777 1.81362,-2.01167 0.24752,-1.10942 2.50303,-7.838198 2.50303,-7.92723 -3.29385,0.827391 -7.79621,-0.342752 -4.78127,-4.31643 1.10715,-1.107151 2.4917,-4.60602 0.24955,-5.76548 -4.57386,-2.365243 -19.97137,22.311101 -9.88783,24.77747 1.61485,0.394961 3.86163,-0.111709 10.1029,-4.75666 z M 121.19732,62.986801 C 119.434,59.304635 119.89447,54.333528 120.51932,50.33158 121.03344,47.727536 109.34975,68.183468 88.552185,64.545413 76.6812,62.468843 76.622698,53.058658 77.120025,49.20389 l 0.17067,-1.32292 -3.54613,3.59502 c -20.206293,20.484817 -35.503648,12.955451 -38.72302,6.229547 -3.04567,-6.362997 -1.94246,-14.388987 3.26667,-23.765317 6.99642,-12.59342 19.46535,-21.45628 27.86216,-19.80431 4.826,0.94945 7.36177,3.86734 7.35143,8.45922 -2.058759,20.79166 -23.48558,22.915905 -24.324346,23.832876 -0.431868,0.472134 -0.65357,3.899522 2.605766,4.988834 6.517279,2.178173 20.238375,-6.890062 25.29437,-12.45065 0.74745,-0.82206 1.74032,-1.60572 2.28247,-1.80154 0.73509,-0.26552 1.09552,-0.63092 1.54079,-1.56201 7.39308,-15.459688 20.300805,-24.121324 29.906015,-19.59439 9.1899,4.331198 3.07553,19.492336 -5.21363,18.155874 -1.66748,-0.268848 -3.0021,-2.239282 -1.53483,-4.277359 5.20912,-7.235631 -0.97435,-6.733861 -4.307037,-3.470978 -6.964897,6.818983 -12.179117,22.883836 -1.903988,23.723376 6.864445,0.56087 13.910805,-3.305453 21.263725,-9.531983 2.96702,-2.5125 3.57332,-2.90956 4.44543,-2.91128 0.63704,-0.001 0.7633,-0.17591 1.29208,-1.78733 1.90331,-5.80023 4.40673,-11.49381 7.24187,-16.47031 2.42917,-4.26392 3.62509,-5.55625 5.14169,-5.55625 3.01978,0 7.43583,2.36469 9.19877,4.92571 1.6765,2.435447 1.26964,3.748005 -0.50625,6.92742 -3.43239,6.145071 -7.94988,15.835777 -8.30049,24.79166 -0.17776,4.540438 0.19787,6.425383 1.90429,9.555838 1.37301,2.518829 1.50355,3.582328 0.5189,4.227496 -4.24967,2.784489 -15.94911,2.364626 -18.85008,-1.323333 z M 59.057615,24.35469 c -1.284621,-3.347748 -10.597084,12.945713 -9.533551,14.009199 0.155083,0.155076 11.22049,-8.523597 9.533551,-14.009199 z M 201.65901,65.236845 c -4.51045,-1.108966 -13.88156,-4.092134 -9.33122,-25.665505 0.87996,-4.171892 12.85118,-51.326778 24.35049,-56.71844 0.8334,-0.390754 5.37988,-2.189569 11.01884,0.82661 2.61407,1.398217 6.58863,4.292139 2.04481,9.0402404 -4.7399,4.95302 -14.05432,21.5906176 -18.23955,34.4925296 -3.11032,9.588267 -8.64648,23.387399 -4.61607,33.556583 1.88928,4.766877 -1.72243,5.291616 -5.22733,4.467982 z M 142.41262,14.22344 c -3.14269,-0.399426 -7.22571,-4.049904 -6.6082,-8.1677196 0.20423,-1.3618607 1.65667,-7.6790726 11.25546,-11.00463 10.47285,-3.6283701 21.46194,2.9320826 14.49272,8.85149 -4.86551,4.1325773 -12.30581,6.6062006 -15.2057,9.2323296 -1.45755,1.31997 -1.66396,1.37708 -3.93428,1.08853 z"
       inkscape:label="Special" /></g></svg>
